<svg width="100" height="21" viewBox="0 0 100 21" fill="none" xmlns="http://www.w3.org/2000/svg">
<g clip-path="url(#clip0_947_105)">
<path d="M33.9867 6.49092C33.9867 6.85428 33.9171 7.17246 33.7778 7.44546C33.638 7.71783 33.438 7.94565 33.1785 8.12701C32.9184 8.30901 32.6057 8.44519 32.2399 8.53619C31.8418 8.63101 31.4338 8.67695 31.0247 8.67301H27.2608V0.716556H30.9342C31.7481 0.716556 32.3867 0.902374 32.8506 1.27337C33.3139 1.64501 33.5456 2.14519 33.5456 2.77392V2.79683C33.5456 3.02401 33.5171 3.2251 33.4608 3.39883C33.3591 3.72633 33.1671 4.01808 32.907 4.2401C32.7836 4.34562 32.649 4.43717 32.5057 4.5131C32.9652 4.68746 33.3272 4.92419 33.5905 5.22328C33.8544 5.52237 33.9867 5.93728 33.9867 6.46801V6.49092ZM31.8158 3.09274V3.06919C31.8158 2.80446 31.7184 2.60146 31.5221 2.46147C31.3259 2.32147 31.0437 2.25147 30.674 2.25147H28.9563V3.93274H30.5614C30.9456 3.93274 31.2513 3.86656 31.4772 3.73356C31.7032 3.60119 31.8158 3.38737 31.8158 3.09146V3.09274ZM32.257 6.27456V6.25165C32.257 5.98692 32.1557 5.77628 31.9519 5.62165C31.7481 5.46574 31.4203 5.3881 30.9684 5.3881H28.9557V7.1381H31.0253C31.4089 7.1381 31.7108 7.0681 31.9291 6.9281C32.1475 6.7881 32.257 6.56983 32.257 6.27456ZM46.1462 8.67301H44.3259L43.6025 6.88865H40.2563L39.5329 8.67301H37.7582L41.1494 0.65992H42.7544L46.1462 8.67301ZM42.981 5.34292L41.9297 2.76183L40.8785 5.34228L42.981 5.34292ZM56.1013 6.32037C56.1013 6.71428 56.0297 7.06492 55.8861 7.37165C55.748 7.67187 55.5431 7.93619 55.2873 8.14419C55.0153 8.36084 54.7044 8.52287 54.3715 8.62146C53.99 8.7355 53.5936 8.79127 53.1956 8.78692C52.5905 8.78636 51.99 8.68043 51.4209 8.47383C50.8354 8.26206 50.2975 7.93543 49.8386 7.51292L50.8671 6.27456C51.207 6.55617 51.5813 6.79291 51.981 6.97901C52.3608 7.15337 52.7778 7.24056 53.2297 7.24056C53.5918 7.24056 53.8721 7.17437 54.0715 7.04201C54.1655 6.98481 54.2427 6.90365 54.2954 6.80675C54.3481 6.70986 54.3743 6.60068 54.3715 6.49028V6.46801C54.3715 6.3541 54.3506 6.25356 54.3095 6.16637C54.2677 6.07919 54.1892 5.99774 54.0721 5.92201C53.9187 5.82889 53.7558 5.75272 53.5861 5.69483C53.3208 5.60176 53.051 5.52212 52.7778 5.45619C52.41 5.36736 52.0476 5.2573 51.6924 5.12656C51.396 5.0206 51.1176 4.86927 50.8671 4.67792C50.6422 4.50113 50.4621 4.27322 50.3418 4.01292C50.2171 3.74756 50.1551 3.41792 50.1551 3.02401V3.0011C50.1551 2.63774 50.2228 2.31001 50.3589 2.01792C50.4943 1.72647 50.6842 1.47447 50.9291 1.26256C51.1866 1.04337 51.4844 0.877304 51.8057 0.773829C52.1669 0.656761 52.5446 0.59917 52.924 0.603283C53.5044 0.603283 54.038 0.690465 54.5234 0.864193C55.0084 1.03796 55.4612 1.29174 55.8633 1.6151L54.9582 2.93301C54.6325 2.70607 54.2842 2.51371 53.919 2.35901C53.5968 2.22239 53.2509 2.15103 52.9013 2.14901C52.562 2.14901 52.3076 2.21519 52.1386 2.34756C51.969 2.48056 51.8842 2.64537 51.8842 2.84201V2.86492C51.8842 2.99346 51.9082 3.10546 51.9576 3.20028C52.0063 3.2951 52.0949 3.38037 52.2234 3.4561C52.3513 3.53183 52.5266 3.60374 52.7487 3.67183C52.9709 3.73992 53.2519 3.81946 53.5905 3.91046C53.9905 4.01674 54.3462 4.13574 54.6589 4.26874C54.9721 4.4011 55.2354 4.56019 55.45 4.74601C55.6652 4.93183 55.8272 5.14946 55.9367 5.39956C56.0456 5.64965 56.1006 5.94874 56.1006 6.29683L56.1013 6.32037ZM66.7089 8.4401H60.6835V0.484283H66.6519V2.04147H62.4127V3.65528H66.143V5.21183H62.4127V6.88228H66.7082V8.43946L66.7089 8.4401ZM34.9696 20.531H33.15L32.4266 18.7466H29.0804L28.357 20.531H26.5823L29.9734 12.5179H31.5785L34.9696 20.531ZM31.8051 17.2009L30.7538 14.6211L29.7019 17.2009H31.8051ZM45.4677 15.3485C45.4677 15.8105 45.3848 16.2158 45.219 16.5639C45.06 16.9041 44.8263 17.2035 44.5354 17.4396C44.2449 17.675 43.9057 17.8506 43.5177 17.9677C43.1121 18.0877 42.6911 18.1471 42.2683 18.144H40.9456V20.531H39.2051V12.5752H42.438C42.9127 12.5752 43.3367 12.6414 43.7101 12.7737C44.0829 12.9067 44.4 13.0938 44.6595 13.3363C44.919 13.5787 45.119 13.8689 45.2582 14.2062C45.3975 14.5435 45.4671 14.9164 45.4671 15.3256L45.4677 15.3485ZM43.7044 15.3822V15.3599C43.7044 14.9654 43.5778 14.6663 43.3253 14.462C43.0728 14.2571 42.7285 14.1546 42.2911 14.1546H40.9462V16.5868H42.3253C42.762 16.5868 43.1013 16.4716 43.3424 16.2406C43.5835 16.0096 43.7044 15.7233 43.7044 15.3822ZM56.0335 15.3485C56.0335 15.8105 55.95 16.2158 55.7848 16.5639C55.6257 16.9041 55.3917 17.2036 55.1006 17.4396C54.8108 17.675 54.4715 17.8506 54.0835 17.9677C53.6779 18.0877 53.257 18.1471 52.8342 18.144H51.5114V20.531H49.7709V12.5752H53.0038C53.4785 12.5752 53.9025 12.6414 54.2759 12.7737C54.6487 12.9067 54.9652 13.0938 55.2253 13.3363C55.4848 13.5787 55.6848 13.8689 55.824 14.2062C55.9633 14.5435 56.0329 14.9164 56.0329 15.3256L56.0335 15.3485ZM54.2696 15.3822V15.3599C54.2696 14.9654 54.143 14.6663 53.8911 14.462C53.6386 14.2571 53.2937 14.1546 52.857 14.1546H51.5114V16.5868H52.8911C53.3278 16.5868 53.6671 16.4716 53.9082 16.2406C54.1487 16.0096 54.2696 15.7233 54.2696 15.3822ZM68.0456 20.531H66.2259L65.5025 18.7466H62.1563L61.4329 20.531H59.6582L63.0494 12.5179H64.6544L68.0456 20.531ZM64.881 17.2009L63.8291 14.6211L62.7785 17.2009H64.881ZM79.1196 20.531H77.0854L75.3892 17.9856H74.0221V20.531H72.281V12.5752H75.8981C76.8405 12.5752 77.5734 12.8062 78.0968 13.2688C78.6209 13.7308 78.8823 14.3748 78.8823 15.2008V15.2231C78.8823 15.8671 78.7259 16.3921 78.4139 16.7975C78.0972 17.2057 77.6716 17.5151 77.1867 17.6896L79.1196 20.531ZM77.1196 15.3141V15.2912C77.1196 14.9126 76.9987 14.6287 76.7576 14.4385C76.5165 14.2495 76.181 14.1546 75.7513 14.1546H74.0215V16.4392H75.7854C76.2146 16.4392 76.5449 16.3374 76.774 16.1325C77.0044 15.9282 77.1196 15.6552 77.1196 15.3141ZM89.493 20.531H83.4677V12.5752H89.4367V14.1324H85.1975V15.7462H88.9278V17.3034H85.1975V18.9738H89.493V20.531ZM99.7424 20.531H94.0563V12.5752H95.7968V18.9401H99.7424V20.531Z" fill="#423A3A"/>
<path fill-rule="evenodd" clip-rule="evenodd" d="M9.81013 20.3637C4.39241 20.3637 0 15.9473 0 10.5C0 5.05275 4.39241 0.636383 9.81013 0.636383C15.2278 0.636383 19.6203 5.05275 19.6203 10.5C19.6203 15.9473 15.2278 20.3637 9.81013 20.3637ZM9.81013 18.1364C14.1797 18.1364 17.7215 14.7172 17.7215 10.5C17.7215 6.28284 14.1797 2.86366 9.81013 2.86366C5.44051 2.86366 1.89873 6.28284 1.89873 10.5C1.89873 14.7172 5.44051 18.1364 9.81013 18.1364Z" fill="url(#paint0_linear_947_105)"/>
</g>
<defs>
<linearGradient id="paint0_linear_947_105" x1="0" y1="0.636383" x2="19.727" y2="20.2563" gradientUnits="userSpaceOnUse">
<stop stop-color="#F8BFBF"/>
<stop offset="1" stop-color="#EE8B8B"/>
</linearGradient>
<clipPath id="clip0_947_105">
<rect width="100" height="21" fill="white"/>
</clipPath>
</defs>
</svg>
